<?xml version="1.0" encoding="UTF-8"?>
<!DOCTYPE svg PUBLIC "-//W3C//DTD SVG 1.1//EN" "http://www.w3.org/Graphics/SVG/1.1/DTD/svg11.dtd">
<svg xmlns="http://www.w3.org/2000/svg" version="1.1" width="1408px" height="736px" style="shape-rendering:geometricPrecision; text-rendering:geometricPrecision; image-rendering:optimizeQuality; fill-rule:evenodd; clip-rule:evenodd" xmlns:xlink="http://www.w3.org/1999/xlink">
<g><path style="opacity:1" fill="#e0e1e0" d="M 731.5,283.5 C 731.5,293.5 731.5,303.5 731.5,313.5C 695.167,313.5 658.833,313.5 622.5,313.5C 621.5,313.5 620.5,313.5 619.5,313.5C 619.5,303.5 619.5,293.5 619.5,283.5C 656.833,283.5 694.167,283.5 731.5,283.5 Z"/></g>
<g><path style="opacity:0.996" fill="#fdfdfd" d="M 620.5,284.5 C 657.167,284.5 693.833,284.5 730.5,284.5C 730.5,293.833 730.5,303.167 730.5,312.5C 693.833,312.5 657.167,312.5 620.5,312.5C 620.5,303.167 620.5,293.833 620.5,284.5 Z"/></g>
<g><path style="opacity:0.086" fill="#4e4d4d" d="M 731.5,283.5 C 732.906,283.973 733.573,284.973 733.5,286.5C 733.224,295.202 733.557,303.868 734.5,312.5C 734.182,313.647 733.516,314.481 732.5,315C 728.187,315.735 723.853,316.235 719.5,316.5C 720.263,315.732 721.263,315.232 722.5,315C 688.997,314.832 655.664,314.332 622.5,313.5C 658.833,313.5 695.167,313.5 731.5,313.5C 731.5,303.5 731.5,293.5 731.5,283.5 Z"/></g>
<g><path style="opacity:0.086" fill="#343434" d="M 733.5,286.5 C 733.573,284.973 732.906,283.973 731.5,283.5C 694.167,283.5 656.833,283.5 619.5,283.5C 619.5,293.5 619.5,303.5 619.5,313.5C 620.5,313.5 621.5,313.5 622.5,313.5C 655.664,314.332 688.997,314.832 722.5,315C 721.263,315.232 720.263,315.732 719.5,316.5C 697.598,315.872 674.931,315.872 651.5,316.5C 640.445,316.62 629.445,316.12 618.5,315C 617.572,314.612 616.905,313.945 616.5,313C 617.796,302.5 617.796,292 616.5,281.5C 655.603,280.171 694.937,280.171 734.5,281.5C 734.784,283.415 734.451,285.081 733.5,286.5 Z"/></g>
<g><path style="opacity:0.964" fill="#c1c1c0" d="M 619.5,343.5 C 652.996,342.502 686.663,342.168 720.5,342.5C 720.5,352.167 720.5,361.833 720.5,371.5C 697.242,372.489 673.908,372.823 650.5,372.5C 650.5,375.167 650.5,377.833 650.5,380.5C 650.672,381.492 650.338,382.158 649.5,382.5C 649.167,382.5 648.833,382.5 648.5,382.5C 648.5,378.833 648.5,375.167 648.5,371.5C 671.833,371.5 695.167,371.5 718.5,371.5C 718.5,362.167 718.5,352.833 718.5,343.5C 685.5,343.5 652.5,343.5 619.5,343.5 Z"/></g>
<g><path style="opacity:0.996" fill="#fdfdfc" d="M 619.5,343.5 C 652.5,343.5 685.5,343.5 718.5,343.5C 718.5,352.833 718.5,362.167 718.5,371.5C 695.167,371.5 671.833,371.5 648.5,371.5C 648.5,375.167 648.5,378.833 648.5,382.5C 643.734,385.861 639.067,389.361 634.5,393C 630.328,396.673 626.328,400.506 622.5,404.5C 621.828,405.267 620.995,405.934 620,406.5C 619.5,385.503 619.333,364.503 619.5,343.5 Z"/></g>
<g><path style="opacity:0.086" fill="#3d3d3d" d="M 720.5,371.5 C 720.833,371.5 721.167,371.5 721.5,371.5C 704.152,373.184 686.485,374.184 668.5,374.5C 663.914,373.63 659.414,373.297 655,373.5C 653.397,375.891 651.897,378.224 650.5,380.5C 650.5,377.833 650.5,375.167 650.5,372.5C 673.908,372.823 697.242,372.489 720.5,371.5 Z"/></g>
<g><path style="opacity:0.224" fill="#535453" d="M 648.5,382.5 C 648.833,382.5 649.167,382.5 649.5,382.5C 641.956,389.952 633.956,396.952 625.5,403.5C 624.609,404.11 623.609,404.443 622.5,404.5C 626.328,400.506 630.328,396.673 634.5,393C 639.067,389.361 643.734,385.861 648.5,382.5 Z"/></g>
<g><path style="opacity:0.004" fill="#0c0d09" d="M 615.5,392.5 C 616.833,393.167 616.833,393.167 615.5,392.5 Z"/></g>
<g><path style="opacity:0.153" fill="#383837" d="M 721.5,371.5 C 721.167,371.5 720.833,371.5 720.5,371.5C 720.5,361.833 720.5,352.167 720.5,342.5C 686.663,342.168 652.996,342.502 619.5,343.5C 619.333,364.503 619.5,385.503 620,406.5C 620.995,405.934 621.828,405.267 622.5,404.5C 623.609,404.443 624.609,404.11 625.5,403.5C 625.489,405.017 624.823,406.184 623.5,407C 621.19,407.497 618.857,407.663 616.5,407.5C 617.798,385.158 617.798,362.824 616.5,340.5C 624.42,339.073 632.42,338.407 640.5,338.5C 667.485,338.649 694.485,338.816 721.5,339C 722.293,340.085 722.96,341.252 723.5,342.5C 722.857,352.295 722.19,361.962 721.5,371.5 Z"/></g>
<g><path style="opacity:0.269" fill="#3d3c3c" d="M 719.5,402.5 C 718.048,403.302 716.382,403.802 714.5,404C 715.056,404.383 715.389,404.883 715.5,405.5C 693.831,405.333 672.164,405.5 650.5,406C 649.748,406.671 649.414,407.504 649.5,408.5C 648.391,408.557 647.391,408.89 646.5,409.5C 647.373,407.114 648.873,405.114 651,403.5C 651.333,403.833 651.667,404.167 652,404.5C 654.405,403.726 656.905,403.226 659.5,403C 679.507,401.832 699.507,401.666 719.5,402.5 Z"/></g>
<g><path style="opacity:0.985" fill="#ecedec" d="M 651.5,407.5 C 677.661,406.502 703.995,406.169 730.5,406.5C 730.5,416.167 730.5,425.833 730.5,435.5C 693.663,435.832 656.996,435.498 620.5,434.5C 620.973,433.094 621.973,432.427 623.5,432.5C 623.389,433.117 623.056,433.617 622.5,434C 658.165,434.5 693.832,434.667 729.5,434.5C 729.5,425.5 729.5,416.5 729.5,407.5C 703.5,407.5 677.5,407.5 651.5,407.5 Z"/></g>
<g><path style="opacity:0.996" fill="#fdfdfc" d="M 651.5,407.5 C 677.5,407.5 703.5,407.5 729.5,407.5C 729.5,416.5 729.5,425.5 729.5,434.5C 693.832,434.667 658.165,434.5 622.5,434C 623.056,433.617 623.389,433.117 623.5,432.5C 626.195,429.474 628.862,426.474 631.5,423.5C 633.833,423.167 635.167,421.833 635.5,419.5C 638.093,418.246 640.427,416.58 642.5,414.5C 645.432,413.2 647.766,411.2 649.5,408.5C 650.167,408.167 650.833,407.833 651.5,407.5 Z"/></g>
<g><path style="opacity:0.098" fill="#323333" d="M 646.5,409.5 C 646.027,410.906 645.027,411.573 643.5,411.5C 643.973,410.094 644.973,409.427 646.5,409.5 Z"/></g>
<g><path style="opacity:0.396" fill="#8f8f8e" d="M 649.5,408.5 C 647.766,411.2 645.432,413.2 642.5,414.5C 642.5,414.167 642.5,413.833 642.5,413.5C 642.833,412.833 643.167,412.167 643.5,411.5C 645.027,411.573 646.027,410.906 646.5,409.5C 647.391,408.89 648.391,408.557 649.5,408.5 Z"/></g>
<g><path style="opacity:0.031" fill="#3d3d3c" d="M 642.5,413.5 C 642.5,413.833 642.5,414.167 642.5,414.5C 640.427,416.58 638.093,418.246 635.5,419.5C 637.214,416.787 639.547,414.787 642.5,413.5 Z"/></g>
<g><path style="opacity:0.345" fill="#4a4a49" d="M 635.5,419.5 C 635.167,421.833 633.833,423.167 631.5,423.5C 631.894,421.29 633.227,419.957 635.5,419.5 Z"/></g>
<g><path style="opacity:0.8" fill="#8c8d8c" d="M 715.5,405.5 C 720.833,405.5 726.167,405.5 731.5,405.5C 731.5,415.833 731.5,426.167 731.5,436.5C 694.161,436.833 656.827,436.5 619.5,435.5C 619.624,434.893 619.957,434.56 620.5,434.5C 656.996,435.498 693.663,435.832 730.5,435.5C 730.5,425.833 730.5,416.167 730.5,406.5C 703.995,406.169 677.661,406.502 651.5,407.5C 650.833,407.833 650.167,408.167 649.5,408.5C 649.414,407.504 649.748,406.671 650.5,406C 672.164,405.5 693.831,405.333 715.5,405.5 Z"/></g>
<g><path style="opacity:0.118" fill="#2c2c2c" d="M 631.5,423.5 C 628.862,426.474 626.195,429.474 623.5,432.5C 621.973,432.427 620.973,433.094 620.5,434.5C 619.957,434.56 619.624,434.893 619.5,435.5C 656.827,436.5 694.161,436.833 731.5,436.5C 731.5,426.167 731.5,415.833 731.5,405.5C 726.167,405.5 720.833,405.5 715.5,405.5C 715.389,404.883 715.056,404.383 714.5,404C 716.382,403.802 718.048,403.302 719.5,402.5C 723.773,401.704 728.106,402.204 732.5,404C 733.574,404.739 734.241,405.739 734.5,407C 733.167,416.333 733.167,425.667 734.5,435C 732.933,436.81 730.933,437.977 728.5,438.5C 694.076,437.293 659.409,437.293 624.5,438.5C 621.684,437.982 619.018,437.149 616.5,436C 621.192,431.341 626.192,427.174 631.5,423.5 Z"/></g>
</svg>
